<svg xmlns="http://www.w3.org/2000/svg" width="986" height="44" viewBox="0 0 986 44" role="img" aria-label="Claude Code status line preview">
  <rect width="986" height="44" rx="6" fill="#0d1117" stroke="#30363d"/>
  <g font-family="ui-monospace,SFMono-Regular,Menlo,Consolas,'DejaVu Sans Mono',monospace" font-size="14">
    <g transform="translate(14,0)">
    <text x="0.0" y="27" fill="#c9d1d9" textLength="142.8" lengthAdjust="spacingAndGlyphs" xml:space="preserve">claude-statusline</text>
    <text x="142.8" y="27" fill="#4e4e4e" textLength="25.2" lengthAdjust="spacingAndGlyphs" xml:space="preserve"> | </text>
    <text x="168.0" y="27" fill="#4e4e4e" textLength="25.2" lengthAdjust="spacingAndGlyphs" xml:space="preserve">5h </text>
    <rect x="193.20" y="16.00" width="8.40" height="14.00" fill="#19ff00"/>
    <rect x="201.60" y="16.00" width="8.40" height="14.00" fill="#4cff00"/>
    <rect x="210.00" y="16.00" width="8.40" height="14.00" fill="#7fff00"/>
    <rect x="218.40" y="16.00" width="8.40" height="14.00" fill="#b2ff00"/>
    <rect x="226.80" y="16.00" width="2.10" height="2.10" fill="#3c3c3c"/>
    <rect x="231.00" y="16.00" width="2.10" height="2.10" fill="#3c3c3c"/>
    <rect x="226.80" y="20.20" width="2.10" height="2.10" fill="#3c3c3c"/>
    <rect x="231.00" y="20.20" width="2.10" height="2.10" fill="#3c3c3c"/>
    <rect x="226.80" y="24.40" width="2.10" height="2.10" fill="#3c3c3c"/>
    <rect x="231.00" y="24.40" width="2.10" height="2.10" fill="#3c3c3c"/>
    <rect x="226.80" y="28.60" width="2.10" height="2.10" fill="#3c3c3c"/>
    <rect x="231.00" y="28.60" width="2.10" height="2.10" fill="#3c3c3c"/>
    <rect x="235.20" y="16.00" width="2.10" height="2.10" fill="#3c3c3c"/>
    <rect x="239.40" y="16.00" width="2.10" height="2.10" fill="#3c3c3c"/>
    <rect x="235.20" y="20.20" width="2.10" height="2.10" fill="#3c3c3c"/>
    <rect x="239.40" y="20.20" width="2.10" height="2.10" fill="#3c3c3c"/>
    <rect x="235.20" y="24.40" width="2.10" height="2.10" fill="#3c3c3c"/>
    <rect x="239.40" y="24.40" width="2.10" height="2.10" fill="#3c3c3c"/>
    <rect x="235.20" y="28.60" width="2.10" height="2.10" fill="#3c3c3c"/>
    <rect x="239.40" y="28.60" width="2.10" height="2.10" fill="#3c3c3c"/>
    <rect x="243.60" y="16.00" width="2.10" height="2.10" fill="#3c3c3c"/>
    <rect x="247.80" y="16.00" width="2.10" height="2.10" fill="#3c3c3c"/>
    <rect x="243.60" y="20.20" width="2.10" height="2.10" fill="#3c3c3c"/>
    <rect x="247.80" y="20.20" width="2.10" height="2.10" fill="#3c3c3c"/>
    <rect x="243.60" y="24.40" width="2.10" height="2.10" fill="#3c3c3c"/>
    <rect x="247.80" y="24.40" width="2.10" height="2.10" fill="#3c3c3c"/>
    <rect x="243.60" y="28.60" width="2.10" height="2.10" fill="#3c3c3c"/>
    <rect x="247.80" y="28.60" width="2.10" height="2.10" fill="#3c3c3c"/>
    <rect x="252.00" y="16.00" width="2.10" height="2.10" fill="#3c3c3c"/>
    <rect x="256.20" y="16.00" width="2.10" height="2.10" fill="#3c3c3c"/>
    <rect x="252.00" y="20.20" width="2.10" height="2.10" fill="#3c3c3c"/>
    <rect x="256.20" y="20.20" width="2.10" height="2.10" fill="#3c3c3c"/>
    <rect x="252.00" y="24.40" width="2.10" height="2.10" fill="#3c3c3c"/>
    <rect x="256.20" y="24.40" width="2.10" height="2.10" fill="#3c3c3c"/>
    <rect x="252.00" y="28.60" width="2.10" height="2.10" fill="#3c3c3c"/>
    <rect x="256.20" y="28.60" width="2.10" height="2.10" fill="#3c3c3c"/>
    <rect x="260.40" y="16.00" width="2.10" height="2.10" fill="#3c3c3c"/>
    <rect x="264.60" y="16.00" width="2.10" height="2.10" fill="#3c3c3c"/>
    <rect x="260.40" y="20.20" width="2.10" height="2.10" fill="#3c3c3c"/>
    <rect x="264.60" y="20.20" width="2.10" height="2.10" fill="#3c3c3c"/>
    <rect x="260.40" y="24.40" width="2.10" height="2.10" fill="#3c3c3c"/>
    <rect x="264.60" y="24.40" width="2.10" height="2.10" fill="#3c3c3c"/>
    <rect x="260.40" y="28.60" width="2.10" height="2.10" fill="#3c3c3c"/>
    <rect x="264.60" y="28.60" width="2.10" height="2.10" fill="#3c3c3c"/>
    <rect x="268.80" y="16.00" width="2.10" height="2.10" fill="#3c3c3c"/>
    <rect x="273.00" y="16.00" width="2.10" height="2.10" fill="#3c3c3c"/>
    <rect x="268.80" y="20.20" width="2.10" height="2.10" fill="#3c3c3c"/>
    <rect x="273.00" y="20.20" width="2.10" height="2.10" fill="#3c3c3c"/>
    <rect x="268.80" y="24.40" width="2.10" height="2.10" fill="#3c3c3c"/>
    <rect x="273.00" y="24.40" width="2.10" height="2.10" fill="#3c3c3c"/>
    <rect x="268.80" y="28.60" width="2.10" height="2.10" fill="#3c3c3c"/>
    <rect x="273.00" y="28.60" width="2.10" height="2.10" fill="#3c3c3c"/>
    <text x="277.2" y="27" fill="#c9d1d9" textLength="33.6" lengthAdjust="spacingAndGlyphs" xml:space="preserve"> 42%</text>
    <text x="310.8" y="27" fill="#4e4e4e" textLength="25.2" lengthAdjust="spacingAndGlyphs" xml:space="preserve"> | </text>
    <text x="336.0" y="27" fill="#4e4e4e" textLength="50.4" lengthAdjust="spacingAndGlyphs" xml:space="preserve">reset </text>
    <rect x="386.40" y="16.00" width="8.40" height="14.00" fill="#19ff00"/>
    <rect x="394.80" y="16.00" width="8.40" height="14.00" fill="#4cff00"/>
    <rect x="403.20" y="16.00" width="8.40" height="14.00" fill="#7fff00"/>
    <rect x="411.60" y="16.00" width="8.40" height="14.00" fill="#b2ff00"/>
    <rect x="420.00" y="16.00" width="8.40" height="14.00" fill="#e5ff00"/>
    <rect x="428.40" y="16.00" width="8.40" height="14.00" fill="#ffe500"/>
    <rect x="436.80" y="16.00" width="2.10" height="2.10" fill="#3c3c3c"/>
    <rect x="441.00" y="16.00" width="2.10" height="2.10" fill="#3c3c3c"/>
    <rect x="436.80" y="20.20" width="2.10" height="2.10" fill="#3c3c3c"/>
    <rect x="441.00" y="20.20" width="2.10" height="2.10" fill="#3c3c3c"/>
    <rect x="436.80" y="24.40" width="2.10" height="2.10" fill="#3c3c3c"/>
    <rect x="441.00" y="24.40" width="2.10" height="2.10" fill="#3c3c3c"/>
    <rect x="436.80" y="28.60" width="2.10" height="2.10" fill="#3c3c3c"/>
    <rect x="441.00" y="28.60" width="2.10" height="2.10" fill="#3c3c3c"/>
    <rect x="445.20" y="16.00" width="2.10" height="2.10" fill="#3c3c3c"/>
    <rect x="449.40" y="16.00" width="2.10" height="2.10" fill="#3c3c3c"/>
    <rect x="445.20" y="20.20" width="2.10" height="2.10" fill="#3c3c3c"/>
    <rect x="449.40" y="20.20" width="2.10" height="2.10" fill="#3c3c3c"/>
    <rect x="445.20" y="24.40" width="2.10" height="2.10" fill="#3c3c3c"/>
    <rect x="449.40" y="24.40" width="2.10" height="2.10" fill="#3c3c3c"/>
    <rect x="445.20" y="28.60" width="2.10" height="2.10" fill="#3c3c3c"/>
    <rect x="449.40" y="28.60" width="2.10" height="2.10" fill="#3c3c3c"/>
    <rect x="453.60" y="16.00" width="2.10" height="2.10" fill="#3c3c3c"/>
    <rect x="457.80" y="16.00" width="2.10" height="2.10" fill="#3c3c3c"/>
    <rect x="453.60" y="20.20" width="2.10" height="2.10" fill="#3c3c3c"/>
    <rect x="457.80" y="20.20" width="2.10" height="2.10" fill="#3c3c3c"/>
    <rect x="453.60" y="24.40" width="2.10" height="2.10" fill="#3c3c3c"/>
    <rect x="457.80" y="24.40" width="2.10" height="2.10" fill="#3c3c3c"/>
    <rect x="453.60" y="28.60" width="2.10" height="2.10" fill="#3c3c3c"/>
    <rect x="457.80" y="28.60" width="2.10" height="2.10" fill="#3c3c3c"/>
    <rect x="462.00" y="16.00" width="2.10" height="2.10" fill="#3c3c3c"/>
    <rect x="466.20" y="16.00" width="2.10" height="2.10" fill="#3c3c3c"/>
    <rect x="462.00" y="20.20" width="2.10" height="2.10" fill="#3c3c3c"/>
    <rect x="466.20" y="20.20" width="2.10" height="2.10" fill="#3c3c3c"/>
    <rect x="462.00" y="24.40" width="2.10" height="2.10" fill="#3c3c3c"/>
    <rect x="466.20" y="24.40" width="2.10" height="2.10" fill="#3c3c3c"/>
    <rect x="462.00" y="28.60" width="2.10" height="2.10" fill="#3c3c3c"/>
    <rect x="466.20" y="28.60" width="2.10" height="2.10" fill="#3c3c3c"/>
    <text x="470.4" y="27" fill="#c9d1d9" textLength="50.4" lengthAdjust="spacingAndGlyphs" xml:space="preserve"> 1h47m</text>
    <text x="520.8" y="27" fill="#4e4e4e" textLength="25.2" lengthAdjust="spacingAndGlyphs" xml:space="preserve"> | </text>
    <text x="546.0" y="27" fill="#4e4e4e" textLength="33.6" lengthAdjust="spacingAndGlyphs" xml:space="preserve">ctx </text>
    <rect x="579.60" y="16.00" width="8.40" height="14.00" fill="#19ff00"/>
    <rect x="588.00" y="16.00" width="8.40" height="14.00" fill="#4cff00"/>
    <rect x="596.40" y="16.00" width="8.40" height="14.00" fill="#7fff00"/>
    <rect x="604.80" y="16.00" width="8.40" height="14.00" fill="#b2ff00"/>
    <rect x="613.20" y="16.00" width="8.40" height="14.00" fill="#e5ff00"/>
    <rect x="621.60" y="16.00" width="8.40" height="14.00" fill="#ffe500"/>
    <rect x="630.00" y="16.00" width="8.40" height="14.00" fill="#ffb200"/>
    <rect x="638.40" y="16.00" width="2.10" height="2.10" fill="#3c3c3c"/>
    <rect x="642.60" y="16.00" width="2.10" height="2.10" fill="#3c3c3c"/>
    <rect x="638.40" y="20.20" width="2.10" height="2.10" fill="#3c3c3c"/>
    <rect x="642.60" y="20.20" width="2.10" height="2.10" fill="#3c3c3c"/>
    <rect x="638.40" y="24.40" width="2.10" height="2.10" fill="#3c3c3c"/>
    <rect x="642.60" y="24.40" width="2.10" height="2.10" fill="#3c3c3c"/>
    <rect x="638.40" y="28.60" width="2.10" height="2.10" fill="#3c3c3c"/>
    <rect x="642.60" y="28.60" width="2.10" height="2.10" fill="#3c3c3c"/>
    <rect x="646.80" y="16.00" width="2.10" height="2.10" fill="#3c3c3c"/>
    <rect x="651.00" y="16.00" width="2.10" height="2.10" fill="#3c3c3c"/>
    <rect x="646.80" y="20.20" width="2.10" height="2.10" fill="#3c3c3c"/>
    <rect x="651.00" y="20.20" width="2.10" height="2.10" fill="#3c3c3c"/>
    <rect x="646.80" y="24.40" width="2.10" height="2.10" fill="#3c3c3c"/>
    <rect x="651.00" y="24.40" width="2.10" height="2.10" fill="#3c3c3c"/>
    <rect x="646.80" y="28.60" width="2.10" height="2.10" fill="#3c3c3c"/>
    <rect x="651.00" y="28.60" width="2.10" height="2.10" fill="#3c3c3c"/>
    <rect x="655.20" y="16.00" width="2.10" height="2.10" fill="#3c3c3c"/>
    <rect x="659.40" y="16.00" width="2.10" height="2.10" fill="#3c3c3c"/>
    <rect x="655.20" y="20.20" width="2.10" height="2.10" fill="#3c3c3c"/>
    <rect x="659.40" y="20.20" width="2.10" height="2.10" fill="#3c3c3c"/>
    <rect x="655.20" y="24.40" width="2.10" height="2.10" fill="#3c3c3c"/>
    <rect x="659.40" y="24.40" width="2.10" height="2.10" fill="#3c3c3c"/>
    <rect x="655.20" y="28.60" width="2.10" height="2.10" fill="#3c3c3c"/>
    <rect x="659.40" y="28.60" width="2.10" height="2.10" fill="#3c3c3c"/>
    <text x="663.6" y="27" fill="#c9d1d9" textLength="33.6" lengthAdjust="spacingAndGlyphs" xml:space="preserve"> 73%</text>
    <text x="697.2" y="27" fill="#4e4e4e" textLength="25.2" lengthAdjust="spacingAndGlyphs" xml:space="preserve"> | </text>
    <text x="722.4" y="27" fill="#c9d1d9" textLength="50.4" lengthAdjust="spacingAndGlyphs" xml:space="preserve">Opus 5</text>
    <text x="772.8" y="27" fill="#4e4e4e" textLength="58.8" lengthAdjust="spacingAndGlyphs" xml:space="preserve"> (high)</text>
    <text x="831.6" y="27" fill="#4e4e4e" textLength="25.2" lengthAdjust="spacingAndGlyphs" xml:space="preserve"> | </text>
    <text x="856.8" y="27" fill="#4e4e4e" textLength="58.8" lengthAdjust="spacingAndGlyphs" xml:space="preserve">tokens </text>
    <text x="915.6" y="27" fill="#c9d1d9" textLength="42.0" lengthAdjust="spacingAndGlyphs" xml:space="preserve">51.3k</text>
    </g>
  </g>
</svg>
